HIERARCHY
ROOT root
{
	OFFSET 0.000000 0.000000 0.000000
	CHANNELS 6 Xposition Yposition Zposition Zrotation Yrotation Xrotation
	JOINT lhip
	{
		OFFSET 0.058581 -0.082280 -0.017664
		CHANNELS 3 Zrotation Yrotation Xrotation
		JOINT lknee
		{
			OFFSET 0.043451 -0.386469 0.008037
			CHANNELS 3 Zrotation Yrotation Xrotation
			JOINT lankle
			{
				OFFSET -0.014790 -0.426874 -0.037428
				CHANNELS 3 Zrotation Yrotation Xrotation
				JOINT ltoe
				{
					OFFSET 0.041054 -0.060286 0.122042
					CHANNELS 3 Zrotation Yrotation Xrotation
					End Site
					{
						OFFSET 0.000000 0.000000 0.000000
					}
				}
			}
		}
	}
	JOINT rhip
	{
		OFFSET -0.060310 -0.090513 -0.013543
		CHANNELS 3 Zrotation Yrotation Xrotation
		JOINT rknee
		{
			OFFSET -0.043257 -0.383688 -0.004843
			CHANNELS 3 Zrotation Yrotation Xrotation
			JOINT rankle
			{
				OFFSET 0.019056 -0.420046 -0.034562
				CHANNELS 3 Zrotation Yrotation Xrotation
				JOINT rtoe
				{
					OFFSET -0.034840 -0.062106 0.130323
					CHANNELS 3 Zrotation Yrotation Xrotation
					End Site
					{
						OFFSET 0.000000 0.000000 0.000000
					}
				}
			}
		}
	}
	JOINT lowerback
	{
		OFFSET 0.004439 0.124404 -0.038385
		CHANNELS 3 Zrotation Yrotation Xrotation
		JOINT upperback
		{
			OFFSET 0.004488 0.137956 0.026820
			CHANNELS 3 Zrotation Yrotation Xrotation
			JOINT chest
			{
				OFFSET -0.002265 0.056032 0.002855
				CHANNELS 3 Zrotation Yrotation Xrotation
				JOINT lowerneck
				{
					OFFSET -0.013390 0.211636 -0.033468
					CHANNELS 3 Zrotation Yrotation Xrotation
					JOINT upperneck
					{
						OFFSET 0.010113 0.088937 0.050410
						CHANNELS 3 Zrotation Yrotation Xrotation
						End Site
						{
							OFFSET 0.000000 0.000000 0.000000
						}
					}
				}
				JOINT lclavicle
				{
					OFFSET 0.071702 0.114000 -0.018898
					CHANNELS 3 Zrotation Yrotation Xrotation
					JOINT lshoulder
					{
						OFFSET 0.122921 0.045205 -0.019046
						CHANNELS 3 Zrotation Yrotation Xrotation
						JOINT lelbow
						{
							OFFSET 0.255332 -0.015649 -0.022946
							CHANNELS 3 Zrotation Yrotation Xrotation
							JOINT lwrist
							{
								OFFSET 0.265709 0.012698 -0.007375
								CHANNELS 3 Zrotation Yrotation Xrotation
								End Site
								{
									OFFSET 0.000000 0.000000 0.000000
								}
							}
						}
					}
				}
				JOINT rclavicle
				{
					OFFSET -0.082954 0.112472 -0.023707
					CHANNELS 3 Zrotation Yrotation Xrotation
					JOINT rshoulder
					{
						OFFSET -0.113228 0.046853 -0.008472
						CHANNELS 3 Zrotation Yrotation Xrotation
						JOINT relbow
						{
							OFFSET -0.260127 -0.014369 -0.031269
							CHANNELS 3 Zrotation Yrotation Xrotation
							JOINT rwrist
							{
								OFFSET -0.269108 0.006794 -0.006027
								CHANNELS 3 Zrotation Yrotation Xrotation
								End Site
								{
									OFFSET 0.000000 0.000000 0.000000
								}
							}
						}
					}
				}
			}
		}
	}
}
MOTION
Frames: 5
Frame Time: 0.033333
0.152552 0.174856 0.736178 21.423808 7.099485 104.558764 27.967698 17.611476 -46.199154 -18.180826 3.896975 96.897824 -8.954079 9.214107 -29.432913 0.000000 -0.000000 0.000000 -4.571476 -1.524239 -74.942196 12.239641 -15.680324 75.514261 -8.911037 -0.069384 -26.453159 0.000000 -0.000000 0.000000 -1.352511 -9.978173 34.604837 5.840580 -8.337032 -4.404146 4.819351 -10.456810 1.110928 -21.360340 29.001029 -5.890415 3.429093 6.452656 -38.232621 -9.790724 -34.209232 2.587249 7.286195 -16.805750 -20.902320 8.921607 -4.381082 -10.671245 -0.358853 -22.707816 5.656745 13.697194 21.122169 -2.893477 48.378252 -14.082421 -7.562742 2.302893 34.307156 14.771172 -1.103732 18.935169 -21.765285 
0.152366 0.173893 0.727371 20.875454 7.404384 104.977228 28.380655 18.163001 -47.078095 -18.148129 4.221703 98.650707 -9.109964 9.292225 -29.556164 0.000000 -0.000000 0.000000 -4.669663 -1.555752 -76.558760 12.207647 -16.693403 77.079352 -9.402856 0.198532 -26.869682 0.000000 -0.000000 0.000000 -1.115271 -10.665424 35.748336 5.860036 -8.387988 -4.685390 4.683150 -10.213912 0.929349 -21.686121 29.304993 -6.095512 3.441948 5.782891 -39.106701 -9.432966 -34.344308 2.655908 8.609730 -16.648779 -21.916352 8.441739 -2.422059 -11.554159 -0.871484 -22.472358 5.822706 14.164084 21.744054 -2.425505 48.443996 -14.123153 -7.805804 2.285586 33.510019 14.815486 -0.888673 18.940995 -21.670959 
0.152582 0.173230 0.720440 20.655269 7.445236 105.251170 28.513969 18.383612 -47.737456 -17.951266 4.595832 99.925206 -9.118858 9.556214 -29.814722 0.000000 -0.000000 0.000000 -4.885730 -1.708267 -77.759533 12.033457 -17.355866 78.423379 -9.886250 0.263437 -27.275775 0.000000 -0.000000 0.000000 -0.957044 -11.026983 36.575327 5.878822 -8.375729 -4.652480 4.610539 -10.107582 0.686828 -21.835426 29.281146 -6.163546 3.414166 5.233246 -39.653979 -9.327351 -34.593114 2.876643 9.625234 -16.563926 -22.834470 8.264237 -1.816195 -12.440090 -1.027470 -22.452207 5.956382 14.458216 22.184192 -2.103394 48.521169 -14.135283 -7.969439 2.382840 33.265137 15.018912 -0.619886 18.915410 -21.473625 
0.152767 0.172685 0.715719 20.727312 7.460595 105.411304 28.632107 18.580730 -48.254868 -17.683665 4.836021 100.787535 -9.156391 9.700994 -29.965908 0.000000 -0.000000 0.000000 -5.042830 -1.759206 -78.509574 11.750126 -17.665826 79.396224 -10.164722 0.186881 -27.656180 0.000000 -0.000000 0.000000 -0.806907 -11.137492 37.105109 5.924869 -8.274479 -4.434148 4.598596 -10.094292 0.483895 -21.861216 29.111293 -6.110044 3.445673 4.793248 -39.974367 -9.278745 -34.889159 3.036907 10.207179 -16.558097 -23.400963 8.508286 -1.911723 -12.865472 -1.038042 -22.786596 5.772772 14.575316 22.511380 -1.957438 48.554510 -14.118951 -7.996951 2.566954 33.546583 15.516824 -0.501893 19.014502 -21.383199 
0.152737 0.172404 0.713651 21.070538 7.444328 105.496183 28.725637 18.669580 -48.633199 -17.696128 4.839909 101.142931 -9.176735 9.510529 -30.005182 0.000000 -0.000000 0.000000 -5.198658 -1.721500 -78.818871 11.397473 -17.738982 79.904351 -10.243324 -0.023883 -27.932006 0.000000 -0.000000 0.000000 -0.676876 -11.233379 37.427319 5.921642 -8.226769 -4.282439 4.563709 -9.996221 0.355909 -21.668906 28.841390 -5.762476 3.639627 4.472700 -40.059877 -9.235059 -35.025270 3.047513 10.492648 -16.709397 -23.671302 8.889556 -2.503944 -13.223545 -0.756125 -22.980589 5.501673 14.638315 22.809797 -1.806836 48.512052 -13.902190 -7.870858 2.734221 34.126407 15.699398 -0.349559 19.169253 -21.955428 
